{"asset":{"generator":"3D Builder","version":"2.0"},"scene":0,"scenes":[{"nodes":[0]}],"nodes":[{"mesh":0,"matrix":[39.370079040527344,0,0,0,0,-4.6932791519793682E-6,-39.370075225830078,0,0,39.370075225830078,-4.6932791519793682E-6,0,-4.8446654687950286E-8,4.613872306435951E-7,-9.6893352008464717E-8,1]}],"meshes":[{"primitives":[{"attributes":{"POSITION":0,"TEXCOORD_0":1},"mode":4,"indices":2,"material":0}]}],"materials":[{"pbrMetallicRoughness":{"baseColorFactor":[1,1,1,1],"metallicFactor":1,"roughnessFactor":1,"baseColorTexture":{"index":0,"texCoord":0},"metallicRoughnessTexture":{"index":1,"texCoord":0}},"alphaMode":"OPAQUE"}],"textures":[{"source":0,"sampler":0},{"source":1,"sampler":0}],"images":[{"uri":"3221783419_2048x2048_6195987693227547908.png"},{"uri":"2438896547_4x4_17319628118832143767.png"}],"samplers":[{"magFilter":9729,"wrapS":10497,"wrapT":10497}],"accessors":[{"bufferView":0,"byteOffset":0,"count":12299,"componentType":5126,"type":"VEC3","min":[-0.031931027770042419,-0.031252089887857437,-1.1719237136276206E-8],"max":[0.031905483454465866,0.031230548396706581,0.051217362284660339]},{"bufferView":1,"byteOffset":0,"count":12299,"componentType":5126,"type":"VEC2"},{"bufferView":2,"byteOffset":0,"count":33708,"componentType":5125,"type":"SCALAR"}],"bufferViews":[{"buffer":0,"byteOffset":0,"byteLength":147588,"byteStride":12,"target":34962},{"buffer":0,"byteOffset":147588,"byteLength":98392,"byteStride":8,"target":34962},{"buffer":0,"byteOffset":245980,"byteLength":134832,"target":34963}],"buffers":[{"byteLength":380812,"uri":"Residential House.bin"}]}